HIERARCHY
ROOT Hips
{
	OFFSET -3.958830 18.904000 13.208200
	CHANNELS 6 Xposition Yposition Zposition Zrotation Yrotation Xrotation 
	JOINT LHipJoint
	{
		OFFSET 0.000000 0.000000 0.000000
		CHANNELS 3 Zrotation Yrotation Xrotation
		JOINT LeftUpLeg
		{
			OFFSET 1.800000 -1.400000 0.085000
			CHANNELS 3 Zrotation Yrotation Xrotation
			JOINT LeftLeg
			{
				OFFSET 2.215000 -6.000000 0.000000
				CHANNELS 3 Zrotation Yrotation Xrotation
				JOINT LeftFoot
				{
					OFFSET 2.500000 -6.900000 0.000000
					CHANNELS 3 Zrotation Yrotation Xrotation
					JOINT LeftToeBase
					{
						OFFSET 0.200000 -0.500000 1.950000
						CHANNELS 3 Zrotation Yrotation Xrotation
						End Site
						{
							OFFSET 0.000000 0.000000 0.000000
						}
					}
				}
			}
		}
	}
	JOINT RHipJoint
	{
		OFFSET 0.000000 0.000000 0.000000
		CHANNELS 3 Zrotation Yrotation Xrotation
		JOINT RightUpLeg
		{
			OFFSET -1.800000 -1.400000 0.085000
			CHANNELS 3 Zrotation Yrotation Xrotation
			JOINT RightLeg
			{
				OFFSET -2.215000 -6.000000 0.000000
				CHANNELS 3 Zrotation Yrotation Xrotation
				JOINT RightFoot
				{
					OFFSET -2.500000 -6.900000 0.000000
					CHANNELS 3 Zrotation Yrotation Xrotation
					JOINT RightToeBase
					{
						OFFSET -0.200000 -0.500000 1.950000
						CHANNELS 3 Zrotation Yrotation Xrotation
						End Site
						{
							OFFSET 0.000000 0.000000 0.000000
						}
					}
				}
			}
		}
	}
	JOINT LowerBack
	{
		OFFSET 0.000000 0.000000 0.000000
		CHANNELS 3 Zrotation Yrotation Xrotation
		JOINT Spine
		{
			OFFSET -0.087000 1.940000 -0.288900
			CHANNELS 3 Zrotation Yrotation Xrotation
			JOINT Spine1
			{
				OFFSET 0.000000 1.950000 0.060000
				CHANNELS 3 Zrotation Yrotation Xrotation
				JOINT Neck
				{
					OFFSET 0.000000 0.000000 0.000000
					CHANNELS 3 Zrotation Yrotation Xrotation
					JOINT Neck1
					{
						OFFSET 0.000000 1.600000 0.340000
						CHANNELS 3 Zrotation Yrotation Xrotation
						JOINT Head
						{
							OFFSET 0.000000 1.667000 -0.240000
							CHANNELS 3 Zrotation Yrotation Xrotation
							End Site
							{
								OFFSET 0.000000 0.000000 0.000000
							}
						}
					}
				}
				JOINT LeftShoulder
				{
					OFFSET 0.000000 0.000000 0.000000
					CHANNELS 3 Zrotation Yrotation Xrotation
					JOINT LeftArm
					{
						OFFSET 2.700000 1.550000 -0.730000
						CHANNELS 3 Zrotation Yrotation Xrotation
						JOINT LeftForeArm
						{
							OFFSET 5.450000 0.000000 0.000000
							CHANNELS 3 Zrotation Yrotation Xrotation
							JOINT LeftHand
							{
								OFFSET 3.450000 0.000000 0.000000
								CHANNELS 3 Zrotation Yrotation Xrotation
								JOINT LeftHandIndex1
								{
									OFFSET 0.750000 0.000000 0.000000
									CHANNELS 3 Zrotation Yrotation Xrotation
									End Site
									{
										OFFSET 0.000000 0.000000 0.000000
									}
								}
							}
						}
					}
				}
				JOINT RightShoulder
				{
					OFFSET 0.000000 0.000000 0.000000
					CHANNELS 3 Zrotation Yrotation Xrotation
					JOINT RightArm
					{
						OFFSET -2.700000 1.550000 -0.730000
						CHANNELS 3 Zrotation Yrotation Xrotation
						JOINT RightForeArm
						{
							OFFSET -5.450000 0.000000 0.000000
							CHANNELS 3 Zrotation Yrotation Xrotation
							JOINT RightHand
							{
								OFFSET -3.450000 0.000000 0.000000
								CHANNELS 3 Zrotation Yrotation Xrotation
								JOINT RightHandIndex1
								{
									OFFSET -0.750000 0.000000 0.000000
									CHANNELS 3 Zrotation Yrotation Xrotation
									End Site
									{
										OFFSET 0.000000 0.000000 0.000000
									}
								}
							}
						}
					}
				}
			}
		}
	}
}
MOTION
Frames: 4
Frame Time: 0.016667
-0.404230 16.111880 -0.139720 4.177431 7.886380 13.430832 -15.445054 11.817424 3.799043 -20.199031 -2.763177 -19.565173 -13.077891 4.297422 2.280526 -1.132725 3.161739 3.316388 0.202300 0.560950 0.262000 18.466109 -8.316121 4.485141 3.161569 7.783307 -54.633150 11.490749 -9.882397 34.520480 -0.538047 -5.072351 1.800552 0.603630 0.455420 0.394670 -3.499782 -2.895816 -8.376027 23.646895 -10.003713 15.716511 6.899802 -9.682006 10.975954 4.577395 2.768345 -11.961722 4.402942 5.807476 17.019035 -12.516740 10.786270 -20.174320 -2.720241 -21.806995 3.994549 -29.284305 -23.119908 -3.033315 -36.519162 -54.689521 13.760619 -4.131811 3.209922 0.248970 0.453770 0.197960 -0.108190 -5.964057 17.066622 7.992106 18.840863 13.909020 -1.447523 -17.553856 -9.008118 -0.402510 2.719316 -1.370308 -0.332540 0.482060 0.317950 -0.040530 
-0.365970 16.126010 -0.125610 4.335475 10.860394 11.633058 -15.403200 11.923471 3.800662 -20.402585 -1.571862 -16.617245 -12.710446 4.440353 1.735870 -0.953998 3.238021 3.316702 0.115320 0.479940 0.149020 18.461254 -8.652430 4.272621 5.063613 7.554518 -50.841529 10.242985 -9.544764 34.984001 -0.502505 -4.995722 1.880384 0.509200 0.489590 0.396820 -3.586443 -2.563519 -8.325935 25.311962 -9.354953 15.853942 8.067720 -9.352979 10.671645 4.081145 3.563441 -12.654535 5.950076 4.057018 17.567719 -11.576780 9.939340 -18.482330 -3.873092 -22.688400 4.448358 -24.839089 -20.146574 -4.360043 -38.514197 -56.280905 15.753967 -4.101750 3.294483 0.184250 0.452290 0.166140 -0.092440 -4.005197 17.792923 8.662416 18.999900 13.192391 -1.046763 -15.670842 -8.382808 -0.416072 2.758675 -1.334369 -0.287170 0.435980 0.334780 0.022290 
-0.343680 16.121560 -0.101010 4.821995 14.108069 9.918322 -15.386172 12.007516 3.843242 -20.201241 -0.794240 -13.899993 -13.103394 4.700054 1.846187 -0.879435 3.445117 3.254943 0.081930 0.427320 0.141230 18.436717 -8.978503 4.018699 7.036902 7.095590 -46.420015 8.505067 -8.593082 33.875965 -0.431055 -4.598947 2.036634 0.474250 0.480480 0.378740 -3.627522 -2.250489 -8.266896 26.176663 -8.112994 15.580320 9.284032 -8.683741 10.244657 3.796926 4.616310 -13.053152 7.996714 1.779841 17.433400 -11.688950 8.895610 -18.008300 -5.101647 -23.105190 4.160288 -19.674813 -18.727395 -4.462993 -40.926465 -56.025218 17.682122 -4.091726 3.299060 0.189130 0.436830 0.152420 -0.106410 -2.383148 17.916468 9.399438 20.781713 11.454812 -0.637727 -14.557134 -6.172490 -0.565238 2.703810 -1.311509 -0.298730 0.425060 0.340910 0.015540 
-0.323760 16.117920 -0.081430 4.980687 17.720836 8.283011 -15.305295 11.907484 3.822410 -19.563783 -0.019188 -11.075927 -13.620672 4.899666 1.707157 -0.824664 3.647040 3.207409 0.128560 0.504950 0.140860 18.497608 -9.365128 3.819189 8.847235 6.669474 -42.511836 6.724190 -7.729601 32.927968 -0.414548 -4.297572 2.174493 0.524090 0.501000 0.362570 -3.898085 -1.500614 -8.145770 28.761890 -7.188840 14.341303 8.463432 -7.861322 10.253842 3.385051 5.404790 -13.202383 9.740958 -0.045080 16.178196 -10.713290 7.435730 -18.800150 -5.568224 -23.541117 3.890892 -13.634332 -17.035390 -4.652626 -42.787644 -56.535360 19.683614 -4.068103 3.280106 0.194390 0.430070 0.172640 -0.059020 -1.265760 17.931271 9.682159 26.004160 10.041427 -1.100807 -17.578326 -4.539426 -0.698506 2.606891 -1.398421 -0.301120 0.485250 0.305550 0.044420 
